<?xml version="1.0" encoding="UTF-8" standalone="no"?>
<!-- Created with Inkscape (http://www.inkscape.org/) -->

<svg
   width="210mm"
   height="297mm"
   viewBox="0 0 210 297"
   version="1.1"
   id="svg5"
   inkscape:version="1.1.1 (3bf5ae0d25, 2021-09-20, custom)"
   sodipodi:docname="counts_01.svg"
   xmlns:inkscape="http://www.inkscape.org/namespaces/inkscape"
   xmlns:sodipodi="http://sodipodi.sourceforge.net/DTD/sodipodi-0.dtd"
   xmlns="http://www.w3.org/2000/svg"
   xmlns:svg="http://www.w3.org/2000/svg">
  <sodipodi:namedview
     id="namedview7"
     pagecolor="#ffffff"
     bordercolor="#666666"
     borderopacity="1.0"
     inkscape:pageshadow="2"
     inkscape:pageopacity="0.0"
     inkscape:pagecheckerboard="0"
     inkscape:document-units="mm"
     showgrid="false"
     inkscape:zoom="1.4010317"
     inkscape:cx="396.85039"
     inkscape:cy="561.372"
     inkscape:window-width="1822"
     inkscape:window-height="2132"
     inkscape:window-x="4162"
     inkscape:window-y="12"
     inkscape:window-maximized="1"
     inkscape:current-layer="layer1" />
  <defs
     id="defs2">
    <rect
       x="321.47103"
       y="277.85336"
       width="336.54258"
       height="138.37489"
       id="rect120200" />
    <rect
       x="69.863023"
       y="55.765948"
       width="716.20852"
       height="467.18255"
       id="rect113888" />
    <rect
       x="850.99408"
       y="404.37804"
       width="60.913775"
       height="60.202902"
       id="rect111242" />
    <rect
       x="737.60158"
       y="239.12774"
       width="206.64135"
       height="124.37274"
       id="rect110246" />
    <rect
       x="286.79971"
       y="238.71069"
       width="606.25219"
       height="442.73332"
       id="rect106186" />
    <rect
       x="110.30667"
       y="72.402326"
       width="588.70089"
       height="366.08287"
       id="rect89474" />
    <rect
       x="38.330329"
       y="97.205033"
       width="705.26651"
       height="302.55947"
       id="rect63828" />
    <rect
       x="1668.3717"
       y="225.05978"
       width="1244.901"
       height="104.71127"
       id="rect58018" />
    <rect
       x="223.12218"
       y="199.07987"
       width="345.3302"
       height="44.48176"
       id="rect7256" />
  </defs>
  <g
     inkscape:label="Layer 1"
     inkscape:groupmode="layer"
     id="layer1">
    <g
       id="g54759"
       transform="translate(-3.950744,66.815838)">
      <g
         id="g55531">
        <path
           style="fill:none;stroke:#000000;stroke-width:0.264583px;stroke-linecap:butt;stroke-linejoin:miter;stroke-opacity:1"
           d="m 97.334352,140.89204 c -0.555215,1.60356 -2.163778,1.64752 -3.189269,2.69769 -0.753922,0.77206 -2.766131,4.63859 -1.941235,5.82133 0.13493,0.19346 0.464706,0.0835 0.693203,0.14199 2.517873,0.64455 8.435839,0.94192 10.538419,-0.85193 1.11617,-0.95227 1.24019,-2.53218 1.66382,-3.83354 0.63302,-1.94458 1.04576,-2.0066 0.41596,-3.83356 -0.0212,-0.0615 -0.27907,-1.89344 -0.83191,-1.98778 -1.23767,-0.21123 -6.835236,-0.58957 -7.348988,0.56795 -0.172799,0.38932 0.410906,1.16565 0,1.27785 -0.706721,0.19296 -1.35205,-0.62712 -2.079943,-0.70994 -0.381695,-0.0434 -2.180005,2.12977 -2.773312,2.12977"
           id="path42"
           sodipodi:nodetypes="cssssssssssc" />
        <path
           style="fill:none;stroke:#000000;stroke-width:0.264583px;stroke-linecap:butt;stroke-linejoin:miter;stroke-opacity:1"
           d="m 97.334352,140.89204 c 0.785728,-0.89923 1.673984,-1.71829 2.357189,-2.69769 0.07569,-0.1085 -0.210371,-0.16983 -0.277249,-0.28397 -0.254601,-0.43455 -0.07031,-0.39683 -0.138705,-0.85189 -0.310722,-2.06735 -1.28029,-4.00502 -1.386573,-5.96333 -0.110361,-2.03339 -0.221946,-4.06037 -0.138708,-6.10529 0.07099,-1.74387 0.39914,-3.50451 0.277249,-5.25341 -0.06959,-0.99848 -0.341088,-1.98533 -0.415957,-2.98164 -0.155432,-2.06836 0.365313,-4.41362 -0.277246,-6.38927 -0.11307,-0.34764 0.0181,-1.16057 0,-1.41984 -0.144214,-2.06667 -0.288208,-5.12852 -1.38674,-6.81521 -0.540784,-0.83032 -0.186523,-3.156271 -0.970618,-3.691579 -0.199123,-0.135945 -0.122881,0.469323 -0.138541,0.709917 -0.15349,2.358172 -0.138708,2.867432 -0.138708,4.685452"
           id="path44"
           sodipodi:nodetypes="csssssssscsssc" />
        <path
           style="fill:none;stroke:#000000;stroke-width:0.264583px;stroke-linecap:butt;stroke-linejoin:miter;stroke-opacity:1"
           d="m 98.582217,79.271134 c -3.159578,-3.571084 -5.678281,-1.193173 -9.290222,0.567931 -1.913922,0.933188 -2.831857,1.966389 -4.021177,3.691583 -2.424719,3.517228 -2.357356,1.693746 -2.357356,6.673223 0,3.276661 0.116877,6.053113 1.386573,9.086956 0.113141,0.270343 0.571212,0.150402 0.832078,0.283956 1.129331,0.578177 2.268741,1.138527 3.327807,1.845797 0.863005,0.57634 1.494274,1.60313 2.495897,1.98777 2.773947,1.06526 8.799586,-1.31041 9.567633,-4.259512 0.68755,-2.640013 0.66992,-5.256961 0.97062,-7.951073 0.22727,-2.036183 1.0594,-4.179411 0.55466,-6.247281 -0.22011,-0.901782 -2.518834,-5.610034 -3.466513,-5.67935 -0.97934,-0.07163 -1.825869,0.735219 -2.773146,0.993873 -0.628634,0.171651 -2.183315,0.0108 -2.495899,0.993897 -0.59396,1.868045 -1.016852,3.786232 -1.525278,5.67935"
           id="path46"
           sodipodi:nodetypes="csssssssssssssc" />
        <path
           style="fill:none;stroke:#000000;stroke-width:0.264583px;stroke-linecap:butt;stroke-linejoin:miter;stroke-opacity:1"
           d="m 92.481095,142.31187 c 0.231124,-0.0473 0.740698,0.0891 0.693372,-0.14198 -0.04733,-0.23113 -0.496975,0.27269 -0.693372,0.14198 -0.936517,-0.62331 -1.709936,-1.46683 -2.495894,-2.27172 -0.480338,-0.4919 -0.772496,-1.21705 -1.247868,-1.70381 -1.51053,-1.54672 -3.538138,-2.84644 -5.130501,-4.25952 -0.767075,-0.6807 -0.990407,-1.38288 -1.802693,-1.98778 -0.427795,-0.31858 -0.769877,-0.16264 -1.10916,-0.56791 -0.686187,-0.81965 -1.038413,-1.91515 -1.802694,-2.69771 -1.092568,-1.11871 -2.439492,-2.08455 -3.327807,-3.40761 -0.21594,-0.32162 -0.875782,-1.7486 -1.248032,-2.12975 -0.289377,-0.2963 -0.637198,-0.25524 -0.970618,-0.42595 -0.660001,-0.3379 -1.796056,-1.46542 -2.357189,-1.98777 -2.039305,-1.89832 -3.594383,-4.3906 -5.546458,-6.38926 -0.565743,-0.57925 -1.531723,-0.85843 -2.079942,-1.41984 -1.493335,-1.52927 -2.958997,-3.31382 -4.437134,-4.82744"
           id="path48"
           sodipodi:nodetypes="cssssssssssssssc" />
        <path
           style="fill:none;stroke:#000000;stroke-width:0.264583px;stroke-linecap:butt;stroke-linejoin:miter;stroke-opacity:1"
           d="m 47.832192,82.252777 c -2.03508,1.094263 -1.938896,3.076143 -2.91202,4.96943 -0.903139,1.75713 -2.307722,3.178061 -2.911851,5.111419 -1.276545,4.085252 -1.247867,8.684814 -1.247867,12.920504 0,3.38966 0.274979,5.46885 2.357191,8.09309 0.560435,0.70632 1.153684,1.71677 2.079943,1.98776 2.451467,0.71723 5.303329,-0.31425 7.6264,-0.99389 3.064139,-0.89645 6.426914,-2.39817 8.3196,-5.1114 1.773082,-2.54177 1.69385,-6.44458 1.109327,-9.370933 -0.02842,-0.142301 -2.590078,-8.486457 -2.634605,-8.519025 -1.846672,-1.350671 -4.477808,-1.406443 -6.655784,-1.703792 -4.022272,-0.549143 -7.81889,-0.185264 -11.508867,1.703792"
           id="path50"
           sodipodi:nodetypes="cssssssssssc" />
        <path
           style="fill:none;stroke:#000000;stroke-width:0.264583px;stroke-linecap:butt;stroke-linejoin:miter;stroke-opacity:1"
           d="m 97.334352,140.89204 c 7.481208,-6.68255 4.221818,-3.8213 8.319598,-8.37704 8.26271,-9.18615 4.69001,-7.79818 6.51708,-11.21671 1.59345,-2.98141 3.63663,-5.49714 5.26921,-8.51903 1.842,-3.40954 2.8662,-7.60983 5.54646,-10.50677 1.97437,-2.134 4.16357,-4.123015 5.8237,-6.531258 0.49037,-0.711353 0.75867,-1.559692 1.24803,-2.271744 1.14771,-1.670008 3.2985,-3.028246 -0.13871,-1.561804"
           id="path52"
           sodipodi:nodetypes="cssssssc" />
        <path
           style="fill:none;stroke:#000000;stroke-width:0.264583px;stroke-linecap:butt;stroke-linejoin:miter;stroke-opacity:1"
           d="m 135.32764,75.295576 c -0.27154,-1.138303 -0.60143,-1.770178 -1.66399,-1.987769 -0.75578,-0.154768 -2.31964,2.376702 -2.91185,3.407608 -2.92473,5.091316 -3.29188,11.510568 -1.80269,17.03805 0.25347,0.940819 0.16162,2.023195 0.69337,2.839675 0.67616,1.038238 3.26466,0.795409 4.29842,0.993873 1.50937,0.289774 2.9632,0.362164 4.35191,0.229148 4.23875,-0.406004 7.87078,-2.725683 10.62364,-6.618396 1.22528,-1.73262 1.53331,-3.575669 2.4959,-5.395394 1.54614,-2.92291 2.61154,-6.033537 1.52528,-9.370912 -0.50397,-1.548381 -0.78246,-3.798109 -2.21865,-4.827444 -1.11131,-0.796489 -4.46297,0.312179 -5.68516,0.425944 -2.06775,0.192472 -3.33545,-1.557102 -5.40775,-0.283956 -2.80815,1.725213 -5.08987,4.363691 -7.21045,6.815212 -1.0128,1.170863 -1.93585,3.119937 -3.1891,3.975536"
           id="path54"
           sodipodi:nodetypes="csssssssssssssc" />
        <path
           style="fill:none;stroke:#000000;stroke-width:0.264583px;stroke-linecap:butt;stroke-linejoin:miter;stroke-opacity:1"
           d="m 106.06991,144.29967 c 1.35198,-0.71563 2.67546,-0.87884 4.15988,-0.70994 2.27415,0.25875 4.79127,0.88499 7.07174,0.14198 0.31644,-0.1031 2.4305,-1.45117 2.6346,-1.56182 1.82872,-0.99136 3.93091,-1.56578 5.82371,-2.41371 2.20175,-0.98635 4.13991,-2.37049 6.23983,-3.54962 2.81682,-1.58168 6.03571,-2.77412 8.73572,-4.54344 1.32941,-0.87117 2.45459,-1.96667 3.88247,-2.69771 1.69984,-0.87029 4.00052,-1.25027 5.54646,-2.12976 0.70996,-0.40391 0.66172,-0.70992 1.52528,-0.70992"
           id="path56"
           sodipodi:nodetypes="csscsssssc" />
        <path
           style="fill:none;stroke:#000000;stroke-width:0.264583px;stroke-linecap:butt;stroke-linejoin:miter;stroke-opacity:1"
           d="m 168.19043,101.70454 c -6.63834,-2.379897 -12.13266,7.85413 -14.97555,12.63655 -1.45863,2.45376 -3.27852,4.74312 -3.88247,7.52513 -1.02443,4.7188 3.62151,10.32728 7.90364,11.64266 2.85869,0.87811 4.80889,-1.11596 6.51708,-2.98167 1.67318,-1.82747 3.51554,-3.68355 4.57584,-5.9633 1.20186,-2.58415 1.13911,-5.37536 1.80269,-8.09307 0.23922,-0.97971 0.76031,-2.2756 0.83191,-3.26561 0.18642,-2.57764 0.0163,-6.56656 -1.52528,-8.80298 -2.6e-4,-5.3e-4 -1.66369,-1.13565 -1.66398,-1.13589 -0.83535,-0.66523 -0.0635,-0.37962 -0.97062,-1.56182 -0.52412,-0.68305 -1.25842,-1.17937 -1.94124,-1.70379 -1.01568,-0.780083 -6.23963,-0.568139 -6.37836,-0.141993 -0.19261,0.591613 -0.18495,1.230523 -0.27742,1.845783"
           id="path58"
           sodipodi:nodetypes="csssssssccsssc" />
        <path
           style="fill:none;stroke:#000000;stroke-width:0.264583px;stroke-linecap:butt;stroke-linejoin:miter;stroke-opacity:1"
           d="m 56.272728,94.451298 c -2.56727,2.064436 -8.655708,0.647957 -10.676961,3.407606 -2.903728,3.964506 -3.498988,13.966676 -0.970616,18.173916 1.589677,2.64524 5.275376,-2.75628 5.546458,-3.12365 3.115206,-4.22181 5.080815,-8.6667 5.407914,-13.914404 0.06778,-1.087409 -0.0258,-2.188562 0.138541,-3.265617 0.07004,-0.459034 0.930992,-1.005835 0.554664,-1.277851 -4.21219,-3.044634 -7.314522,4.353407 -8.73556,6.957202 -0.262792,0.48152 -0.790969,0.87282 -0.832075,1.41983 -0.08507,1.13204 4.990129,1.13709 5.823871,0.56794 2.987715,-2.03957 4.921631,-7.083945 6.239661,-9.938866 0.231568,-0.501591 0.372705,-1.040185 0.554662,-1.561824 0.04918,-0.140989 0.220165,-0.3008 0.138708,-0.425945 -0.20619,-0.316773 -2.951234,0.535032 -4.575839,2.697689 -1.325521,1.764511 -2.567671,13.969366 -1.80253,15.760176 0.678916,1.589 2.180643,-2.84451 2.495897,-4.54346 0.880149,-4.74328 1.406538,-12.903517 1.52528,-17.889942 0.02706,-1.136486 0.578866,-2.525889 -0.138708,-3.407605 -0.446045,-0.548077 -1.434711,0.359161 -1.941234,0.851886 -1.385835,1.348087 -2.819493,2.776993 -3.605221,4.543489 -2.445147,5.497232 -3.639785,14.117922 -4.021177,20.019692 -0.01495,0.2314 -1.485707,9.82266 1.525278,11.78464 0.855631,0.55754 2.101392,0.66085 3.050561,0.28398 5.059791,-2.00899 5.605875,-7.4039 6.794323,-12.06862 0.01125,-0.0441 0.87612,-4.43583 -0.277249,-5.39538 -0.440142,-0.36617 -1.091438,-0.42596 -1.663986,-0.42596 -3.839556,0 -4.437134,2.72026 -4.437134,5.82134 0,0.56793 -0.295881,1.21903 0,1.70379 0.26021,0.42633 0.887111,0.56795 1.386573,0.56795 3.72832,0 3.032913,-12.977464 -1.941235,-13.63044 -8.072548,-1.059717 -3.847716,10.62038 -0.970618,6.81521 0.800351,-1.05852 1.366991,-2.29611 1.802696,-3.54957 0.542097,-1.559546 0.73942,-3.2183 1.109157,-4.827446 0.18487,-0.804579 0.770774,-1.616972 0.554662,-2.41373 -0.09314,-0.343408 -1.91294,-0.536543 -3.60522,1.419836 -2.669585,3.0862 -6.30065,12.21983 -1.386573,15.05026 5.289838,3.04687 8.932291,-7.63098 7.903646,-10.790746 -0.33615,-1.032582 -3.207559,-1.20894 -3.605056,-1.135883 -1.2812,0.235471 -3.499287,1.090181 -4.159885,2.555719 -1.210358,2.68519 -0.379045,11.86142 2.911853,12.92051 0.941361,0.30294 2.258992,0.17484 2.911854,-0.56793 0.832757,-0.94744 0.715242,-2.43561 0.832077,-3.69159 0.377778,-4.06118 -0.06424,-14.072457 -5.823873,-14.766282 -8.197993,-0.98756 -6.011601,22.240712 -0.693203,11.784642 0.629695,-1.23799 0.935482,-2.62221 1.247865,-3.97556 0.09887,-0.42831 0.837115,-5.167813 0.693369,-6.247278 -0.372543,-2.797665 -4.535582,2.438746 -5.269208,5.537358 -0.990756,4.18468 -1.218594,12.65082 1.941234,16.04416 3.436983,3.69097 6.671678,-3.86602 7.071739,-4.82744 1.685549,-4.05071 6.768999,-21.15285 3.327974,-25.55706 -0.707343,-0.905335 -3.425661,0.9427 -5.130501,4.259514 -3.16057,6.148964 -4.835403,14.303306 -3.466515,21.155556 0.222242,1.11248 0.873691,2.93324 2.495896,2.55572 0.617424,-0.14369 -0.952701,6.17272 -0.554662,5.67935 3.079927,-3.81763 1.194861,-13.41931 -1.52528,-15.61821 -1.031629,-0.83395 -2.041454,-1.69464 -3.050559,-2.5557 -0.452922,-0.38648 -1.842048,-1.3184 -1.248031,-1.27785 0.656764,0.0448 4.705056,1.23964 5.407913,0.56793 1.952636,-1.8661 -3.981473,-14.934587 -5.546455,-12.210609 -1.635458,2.846647 0.197565,7.422787 1.109158,10.222839 0.124827,0.38342 0.02548,1.23586 0.41612,1.13586 0.415063,-0.10625 0.09232,-0.8519 0.138541,-1.27785 0.397394,-3.662126 0.973791,-6.096759 -0.415954,-9.938861 -0.431413,-1.192688 -2.829052,-2.29177 -4.021177,-1.419838 -0.872921,0.638463 -1.424675,1.68435 -1.802529,2.697689 -0.609135,1.633598 -0.984189,3.372445 -1.109324,5.111419 -0.220612,3.065821 -0.845468,8.169321 1.386573,11.216711 0.396827,0.54179 1.042527,0.88132 1.663988,1.13586 4.908928,2.01063 6.325497,-5.96909 6.655782,-8.94497 0.08353,-0.752624 0,-1.514492 0,-2.27174 0,-0.09465 0.07507,-0.341606 0,-0.283956 -0.419743,0.322342 -0.858899,0.669629 -1.109327,1.135862 -0.454975,0.847045 -5.209159,12.450054 -2.911851,12.920504 7.25968,1.48668 9.665764,-10.18787 4.437132,-12.778516 -6.421305,-3.181588 -4.693346,10.342276 -2.495897,12.920506 1.247921,1.46416 3.235391,2.08243 4.853088,3.12365"
           id="path60"
           sodipodi:nodetypes="csscssssssssssssssssssssssssssssssssssssssssssssssssscsscssssssssssssssssssc" />
      </g>
    </g>
    <text
       xml:space="preserve"
       transform="scale(0.26458333)"
       id="text7254"
       style="fill:black;fill-opacity:1;line-height:1.25;stroke:none;font-family:sans-serif;font-style:normal;font-weight:normal;font-size:40px;white-space:pre;shape-inside:url(#rect7256)" />
    <text
       xml:space="preserve"
       transform="scale(0.26458333)"
       id="text58016"
       style="fill:black;fill-opacity:1;line-height:1.25;stroke:none;font-family:sans-serif;font-style:normal;font-weight:normal;font-size:40px;white-space:pre;shape-inside:url(#rect58018)" />
    <text
       xml:space="preserve"
       transform="scale(0.26458333)"
       id="text63826"
       style="fill:black;fill-opacity:1;line-height:1.25;stroke:none;font-family:sans-serif;font-style:normal;font-weight:normal;font-size:40px;white-space:pre;shape-inside:url(#rect63828)" />
    <text
       xml:space="preserve"
       transform="scale(0.26458333)"
       id="text89472"
       style="font-style:normal;font-weight:normal;font-size:40px;line-height:1.25;font-family:sans-serif;white-space:pre;shape-inside:url(#rect89474);fill:#000000;fill-opacity:1;stroke:none"><tspan
         x="110.30664"
         y="107.99345"
         id="tspan134209"><tspan
           style="font-size:18.6667px;-inkscape-font-specification:'sans-serif, Normal'"
           id="tspan134207">Dots are nodes that are choices. The next state is </tspan></tspan><tspan
         x="110.30664"
         y="157.99345"
         id="tspan134213"><tspan
           style="font-size:18.6667px;-inkscape-font-specification:'sans-serif, Normal'"
           id="tspan134211">the next set of available choices. Each node on the </tspan></tspan><tspan
         x="110.30664"
         y="207.99345"
         id="tspan134219"><tspan
           style="font-size:18.6667px;-inkscape-font-specification:'sans-serif, Normal'"
           id="tspan134215">tree is </tspan><tspan
           style="font-size:18.6667px;-inkscape-font-specification:'sans-serif, Normal'"
           id="tspan134217">a current state. Each edge is expanding to </tspan></tspan><tspan
         x="110.30664"
         y="257.99345"
         id="tspan134223"><tspan
           style="font-size:18.6667px;-inkscape-font-specification:'sans-serif, Normal'"
           id="tspan134221">the next set of possible states based on an </tspan></tspan><tspan
         x="110.30664"
         y="307.99345"
         id="tspan134229"><tspan
           style="font-size:18.6667px;-inkscape-font-specification:'sans-serif, Normal'"
           id="tspan134225">observation. We co</tspan><tspan
           style="font-size:18.6667px;-inkscape-font-specification:'sans-serif, Normal'"
           id="tspan134227">uld draw out 0X0 if we wanted to </tspan></tspan><tspan
         x="110.30664"
         y="357.99345"
         id="tspan134233"><tspan
           style="font-size:18.6667px;-inkscape-font-specification:'sans-serif, Normal'"
           id="tspan134231">spend the rest of our life in inkscape. </tspan></tspan></text>
    <text
       xml:space="preserve"
       transform="scale(0.26458333)"
       id="text106184"
       style="fill:black;fill-opacity:1;line-height:1.25;stroke:none;font-family:sans-serif;font-style:normal;font-weight:normal;font-size:40px;white-space:pre;shape-inside:url(#rect106186)" />
    <text
       xml:space="preserve"
       transform="scale(0.26458333)"
       id="text110244"
       style="fill:black;fill-opacity:1;line-height:1.25;stroke:none;font-family:sans-serif;font-style:normal;font-weight:normal;font-size:40px;white-space:pre;shape-inside:url(#rect110246)" />
    <text
       xml:space="preserve"
       transform="scale(0.26458333)"
       id="text111240"
       style="fill:black;fill-opacity:1;line-height:1.25;stroke:none;font-family:sans-serif;font-style:normal;font-weight:normal;font-size:40px;white-space:pre;shape-inside:url(#rect111242)" />
    <text
       xml:space="preserve"
       transform="scale(0.26458333)"
       id="text113886"
       style="fill:black;fill-opacity:1;line-height:1.25;stroke:none;font-family:sans-serif;font-style:normal;font-weight:normal;font-size:40px;white-space:pre;shape-inside:url(#rect113888)" />
    <text
       xml:space="preserve"
       transform="scale(0.26458333)"
       id="text120198"
       style="fill:black;fill-opacity:1;line-height:1.25;stroke:none;font-family:sans-serif;font-style:normal;font-weight:normal;font-size:40px;white-space:pre;shape-inside:url(#rect120200)" />
  </g>
</svg>
